<mxfile host="Electron" modified="2024-08-21T15:01:51.304Z" agent="Mozilla/5.0 (Windows NT 10.0; Win64; x64) AppleWebKit/537.36 (KHTML, like Gecko) draw.io/24.1.0 Chrome/120.0.6099.109 Electron/28.1.0 Safari/537.36" etag="dw-lDkf9f-GRk-9-Q1G4" version="24.1.0" type="device">
  <diagram name="Page-1" id="03018318-947c-dd8e-b7a3-06fadd420f32">
    <mxGraphModel dx="1195" dy="697" grid="1" gridSize="10" guides="1" tooltips="1" connect="1" arrows="1" fold="1" page="1" pageScale="1" pageWidth="1100" pageHeight="850" background="none" math="0" shadow="0">
      <root>
        <mxCell id="0" />
        <mxCell id="1" parent="0" />
        <mxCell id="677b7b8949515195-1" value="" style="whiteSpace=wrap;html=1;rounded=0;shadow=0;labelBackgroundColor=none;strokeColor=#000000;strokeWidth=1;fillColor=none;fontFamily=Verdana;fontSize=12;fontColor=#000000;align=center;comic=1;" parent="1" vertex="1">
          <mxGeometry x="20" y="20" width="1060" height="810" as="geometry" />
        </mxCell>
        <mxCell id="677b7b8949515195-2" value="LOGO" style="whiteSpace=wrap;html=1;rounded=0;shadow=0;labelBackgroundColor=none;strokeWidth=1;fontFamily=Verdana;fontSize=28;align=center;comic=1;" parent="1" vertex="1">
          <mxGeometry x="40" y="45" width="190" height="50" as="geometry" />
        </mxCell>
        <mxCell id="677b7b8949515195-3" value="Search" style="strokeWidth=1;shadow=0;dashed=0;align=center;html=1;shape=mxgraph.mockup.forms.searchBox;strokeColor=#999999;mainText=;strokeColor2=#008cff;fontColor=#666666;fontSize=17;align=left;spacingLeft=3;rounded=0;labelBackgroundColor=none;comic=1;" parent="1" vertex="1">
          <mxGeometry x="840" y="65" width="220" height="30" as="geometry" />
        </mxCell>
        <mxCell id="677b7b8949515195-6" value="Konto" style="text;html=1;points=[];align=left;verticalAlign=top;spacingTop=-4;fontSize=14;fontFamily=Verdana" parent="1" vertex="1">
          <mxGeometry x="940" y="40" width="60" height="20" as="geometry" />
        </mxCell>
        <mxCell id="677b7b8949515195-7" value="Logout" style="text;html=1;points=[];align=left;verticalAlign=top;spacingTop=-4;fontSize=14;fontFamily=Verdana" parent="1" vertex="1">
          <mxGeometry x="1010" y="40" width="60" height="20" as="geometry" />
        </mxCell>
        <mxCell id="677b7b8949515195-9" value="" style="line;strokeWidth=1;html=1;rounded=0;shadow=0;labelBackgroundColor=none;fillColor=none;fontFamily=Verdana;fontSize=14;fontColor=#000000;align=center;comic=1;" parent="1" vertex="1">
          <mxGeometry x="20" y="110" width="1060" height="10" as="geometry" />
        </mxCell>
        <mxCell id="LJii5e2iyVx8idLLH1ol-21" value="" style="whiteSpace=wrap;html=1;rounded=0;shadow=0;labelBackgroundColor=none;strokeWidth=1;fillColor=none;fontFamily=Verdana;fontSize=12;align=center;comic=1;" parent="1" vertex="1">
          <mxGeometry x="30" y="140" width="1040" height="50" as="geometry" />
        </mxCell>
        <mxCell id="LJii5e2iyVx8idLLH1ol-22" value="Dashboard" style="whiteSpace=wrap;html=1;rounded=0;shadow=0;labelBackgroundColor=none;strokeWidth=1;fillColor=none;fontFamily=Verdana;fontSize=12;align=center;comic=1;" parent="1" vertex="1">
          <mxGeometry x="40" y="150" width="333" height="30" as="geometry" />
        </mxCell>
        <mxCell id="LJii5e2iyVx8idLLH1ol-26" value="Schlagwortverwaltung" style="whiteSpace=wrap;html=1;rounded=0;shadow=0;labelBackgroundColor=none;strokeWidth=1;fillColor=none;fontFamily=Verdana;fontSize=12;align=center;comic=1;" parent="1" vertex="1">
          <mxGeometry x="730" y="150" width="330" height="30" as="geometry" />
        </mxCell>
        <mxCell id="LJii5e2iyVx8idLLH1ol-27" value="Anzeigebereich" style="whiteSpace=wrap;html=1;rounded=0;shadow=0;labelBackgroundColor=none;strokeColor=#000000;strokeWidth=1;fillColor=default;fontFamily=Verdana;fontSize=12;fontColor=#000000;align=center;comic=1;" parent="1" vertex="1">
          <mxGeometry x="30" y="210" width="1040" height="610" as="geometry" />
        </mxCell>
        <mxCell id="Q3PnjCN2q9C488Z4irLO-1" value="Nutzerverwaltung" style="whiteSpace=wrap;html=1;rounded=0;shadow=0;labelBackgroundColor=none;strokeWidth=1;fillColor=none;fontFamily=Verdana;fontSize=12;align=center;comic=1;" parent="1" vertex="1">
          <mxGeometry x="385" y="150" width="330" height="30" as="geometry" />
        </mxCell>
        <mxCell id="Q3PnjCN2q9C488Z4irLO-3" value="&lt;u&gt;&lt;b&gt;Anzeigebereich besteht aus folgenden Komponenten:&lt;/b&gt;&lt;/u&gt;&lt;div&gt;&lt;br&gt;&lt;/div&gt;&lt;div&gt;&lt;ul&gt;&lt;li&gt;&lt;u&gt;&lt;b&gt;Dashboard&lt;/b&gt;&lt;/u&gt;&lt;/li&gt;&lt;/ul&gt;&lt;ol&gt;&lt;ol&gt;&lt;li&gt;Pie-Chart für Medienverteilung&lt;/li&gt;&lt;li&gt;Auflistung aller User mit Anzahl der hochgeladenen Medien nach Typ und eigene Labels&lt;/li&gt;&lt;/ol&gt;&lt;/ol&gt;&lt;div&gt;&lt;ul&gt;&lt;li&gt;&lt;b&gt;&lt;u&gt;Nutzerverwaltung&lt;/u&gt;&lt;/b&gt;&lt;/li&gt;&lt;/ul&gt;&lt;ol&gt;&lt;ol&gt;&lt;li&gt;Button für Neuanlage von Benutzern&lt;/li&gt;&lt;li&gt;Button für Löschen von Benutzern (Standardmäßig deaktiviert - wird aktiviert, sobald ein User angewählt wird)&lt;/li&gt;&lt;li&gt;Auflistung aller User mit Checkboxen für Mehrfachlöschung&lt;/li&gt;&lt;/ol&gt;&lt;/ol&gt;&lt;div&gt;&lt;ul&gt;&lt;li&gt;&lt;b&gt;&lt;u&gt;Schlagwortverwaltung&lt;/u&gt;&lt;/b&gt;&lt;/li&gt;&lt;/ul&gt;&lt;ol&gt;&lt;ol&gt;&lt;li&gt;Button für Neuanlage von Labels&lt;/li&gt;&lt;li&gt;Button für Löschen von Labels (Standardmäßig deaktiviert - wird aktiviert, sobald ein Label angewählt wird)&lt;/li&gt;&lt;li&gt;Auflistung aller Labels mit Checkboxen für Mehrfachlöschung&lt;/li&gt;&lt;/ol&gt;&lt;/ol&gt;&lt;/div&gt;&lt;/div&gt;&lt;/div&gt;" style="text;html=1;align=left;verticalAlign=top;whiteSpace=wrap;rounded=0;" parent="1" vertex="1">
          <mxGeometry x="30" y="850" width="580" height="310" as="geometry" />
        </mxCell>
        <mxCell id="gY5ShrHAzV4Y09KtIVAM-1" value="User-View" style="text;html=1;points=[];align=left;verticalAlign=top;spacingTop=-4;fontSize=14;fontFamily=Verdana" vertex="1" parent="1">
          <mxGeometry x="840" y="40" width="80" height="20" as="geometry" />
        </mxCell>
      </root>
    </mxGraphModel>
  </diagram>
</mxfile>
